# xmcd CD database file
#
# Track frame offsets:
#	150
#	18033
#	33800
#	49112
#	61117
#	76552
#	92132
#	108359
#	124916
#	138669
#	152948
#	165681
#	174913
#	188248
#	196272
#	211144
#	226615
#	242832
#	257938
#	274493
#
# Disc length: 3831 seconds
#
# Revision: 0
# Processed by: cddbd v1.4PL0 Copyright (c) Steve Scherf et al.
# Submitted via: CDex 1.50beta9
#
DISCID=050ef514
DTITLE=Tommy and Jimmy Dorsey - Presenting
DYEAR=1900
DGENRE=Jazz
TTITLE0=I'm Getting Sentimental Over You
TTITLE1=When the Midnight Choo Choo Leaves for Alabam'
TTITLE2=Rhythm Saved the World
TTITLE3=The Sheik of Araby
TTITLE4=Boogie Woogie
TTITLE5=How am I to Know
TTITLE6=Marie
TTITLE7=Marcheta
TTITLE8=Swing High
TTITLE9=Opus One
TTITLE10=September in the Rain
TTITLE11=Contrasts
TTITLE12=Tiger Rag
TTITLE13=Muskrat Ramble
TTITLE14=Parade of the Milk Bottle Caps
TTITLE15=Dream
TTITLE16=Green Eyes
TTITLE17=Stompin at the Savoy
TTITLE18=La Rosita
TTITLE19=Chicken Reel
EXTD=
EXTT0=
EXTT1=
EXTT2=
EXTT3=
EXTT4=
EXTT5=
EXTT6=
EXTT7=
EXTT8=
EXTT9=
EXTT10=
EXTT11=
EXTT12=
EXTT13=
EXTT14=
EXTT15=
EXTT16=
EXTT17=
EXTT18=
EXTT19=
PLAYORDER=
